{"title":"Keeping Australia Alive - S01E02 - What's In A Postcode","uid":16043774,"size":481629480,"categoryP":"video","categoryS":"tv_shows","magnet":"?xt=urn:btih:1b6213ab9db707c33de1b8f048fdc8f59595db05&amp;dn=Keeping+Australia+Alive+-+S01E02+-+What%27s+In+A+Postcode&amp;tr=udp%3A%2F%2Ftracker.leechers-paradise.org%3A6969&amp;tr=udp%3A%2F%2Fzer0day.ch%3A1337&amp;tr=udp%3A%2F%2Fopen.demonii.com%3A1337&amp;tr=udp%3A%2F%2Ftracker.coppersurfer.tk%3A6969&amp;tr=udp%3A%2F%2Fexodus.desync.com%3A6969","seeders":7,"leechers":3,"uploader":"Bullrout","files":1,"time":1476541128,"description":"Keeping Australia Alive - S01E02 - What's In A Postcode\r\n\r\nWith a health system as vast as Australia's, a postcode can mean the difference between life and death. Archie Lauriston places the lives of both his wife AND daughter into the hands of the medicos for complex surgery.\r\n\r\nComplete name                            : Keeping Australia Alive - S01E02 - What's In A Postcode.mp4\r\nFormat                                   : MPEG-4\r\nFormat profile                           : Base Media / Version 2\r\nCodec ID                                 : mp42 (mp42/isom/avc1)\r\nFile size                                : 459 MiB\r\nDuration                                 : 57 min 46 s\r\nOverall bit rate mode                    : Variable\r\nOverall bit rate                         : 1 111 kb/s\r\n\r\nVideo\r\nID                                       : 2\r\nFormat                                   : AVC\r\nFormat/Info                              : Advanced Video Codec\r\nFormat profile                           :   \r\nFormat settings, CABAC                   : Yes\r\nFormat settings, ReFrames                : 3 frames\r\nCodec ID                                 : avc1\r\nCodec ID/Info                            : Advanced Video Coding\r\nDuration                                 : 57 min 46 s\r\nBit rate mode                            : Variable\r\nBit rate                                 : 980 kb/s\r\nMaximum bit rate                         : 1 000 kb/s\r\nWidth                                    : 720 pixels\r\nHeight                                   : 404 pixels\r\nDisplay aspect ratio                     : 16:9\r\nOriginal display aspect ratio            : 16:9\r\nFrame rate mode                          : Constant\r\nFrame rate                               : 25.000 FPS\r\nStandard                                 : PAL\r\nColor space                              : YUV\r\nChroma subsampling                       : 4:2:0\r\nBit depth                                : 8 bits\r\nScan type                                : Progressive\r\nBits/(Pixel*Frame)                       : 0.135\r\nStream size                              : 405 MiB (88%)\r\nWriting library                          : x264 core 112\r\nColor range                              : Limited\r\nColor primaries                          : BT.601 PAL\r\nTransfer characteristics                 : BT.470 System B, BT.470 System G\r\nMatrix coefficients                      : BT.601\r\n\r\nAudio\r\nID                                       : 1\r\nFormat                                   : AAC\r\nFormat/Info                              : Advanced Audio Codec\r\nFormat profile                           : LC\r\nCodec ID                                 : 40\r\nDuration                                 : 57 min 46 s\r\nBit rate mode                            : Variable\r\nBit rate                                 : 128 kb/s\r\nMaximum bit rate                         : 576 kb/s\r\nChannel(s)                               : 2 channels\r\nChannel positions                        : Front: L R\r\nSampling rate                            : 48.0 kHz\r\nFrame rate                               : 46.875 FPS (1024 spf)\r\nCompression mode                         : Lossy\r\nStream size                              : 52.9 MiB (12%)","torrent":{"xt":"urn:btih:1b6213ab9db707c33de1b8f048fdc8f59595db05","amp;dn":"Keeping+Australia+Alive+-+S01E02+-+What%27s+In+A+Postcode","amp;tr":["udp%3A%2F%2Ftracker.leechers-paradise.org%3A6969","udp%3A%2F%2Fzer0day.ch%3A1337","udp%3A%2F%2Fopen.demonii.com%3A1337","udp%3A%2F%2Ftracker.coppersurfer.tk%3A6969","udp%3A%2F%2Fexodus.desync.com%3A6969"],"infoHash":"1b6213ab9db707c33de1b8f048fdc8f59595db05","infoHashBuffer":{"type":"Buffer","data":[27,98,19,171,157,183,7,195,61,225,184,240,72,253,200,245,149,149,219,5]},"announce":[],"urlList":[]}}